<svg xmlns="http://www.w3.org/2000/svg" viewBox="0 0 512 512">
  <!-- Background -->
  <rect width="512" height="512" rx="80" fill="#f57c00"/>
  <!-- RWGPS logo -->
  <path fill="#ffffff" fill-rule="evenodd" d="M374 130.8c.6 19-15.5 31.6-29.8 32.2-14.2 0-34.5-9.5-33.9-32.2 0-1.2-1.1-7.1-6-10.1a48 48 0 0 0-37.4-4.8l-8.9 3c9.5-16.7 44.6-26.8 79.1-21.5 17.3 3 36.3 14.3 36.9 33.4M293.4 295l1.1-1.2q1.8-2.7 5.3-7.1l1.8-1.8v.6c11.2-11.2 26-24.8 37.2-30.1 11.8-6 22.4-9.4 41.3-7.7 43 4.2 72.6 31.3 72.6 71.5 0 40.1-35.4 72.6-79 72.6-23.1 0-46.1-13.6-59.7-26q-.9-.1-1.8-1.2c-8.8 13.6 21.9 51.4 70.3 51.4 56 0 98.5-43.7 98.5-98a98 98 0 0 0-96.2-97.4 130 130 0 0 0-76.1 18.6q-6.6 3.8-9.4 4.4c-6.5 1.2-75-46-81.5-55.5-2.3-4.1 1.8-17.1 46-20.7 20.1 21.9 41.4 38.4 80.3 38.4a131 131 0 0 0 55.5-16.5c10-6.5 5.9-11.2 5.9-11.2s0 3.5-13 6.4c-12.4 3-23 4.8-44.3 3h-.1c-7.6-.6-47.8-4-61.8-55.5-57.9-6-118 14.8-118 53.7 0 12.4 1.1 28.4 36 49 24.1 14.2 47.8 38.4 47.8 49 0 9.5-39.6 53.2-58.5 73.3l-2.8 2.5q-1.7 1.4-3.7 3.4a73 73 0 0 1-53 22.4c-39.6 0-72.6-33-72.6-74.4 0-26 13-47.2 30.6-62a72 72 0 0 1 36.6-13.6c6.5-.6 13-1.2 25.4 1.8q.9.8 1.8.6c0-8.3-15.4-14.8-23.6-16a73 73 0 0 0-20.1 0C64.4 227.1 29 268.4 29 318.6c0 54.3 49.6 96.8 100.3 96.8 6.5 0 11.8 0 17.1-.6 29.5-2.3 56-13 102.1-68.5l5.3-6c9.7-10.8 29.3-32.7 39.6-45.3" clip-rule="evenodd"/>
  <!-- Plus sign -->
  <rect x="224" y="168" width="64" height="176" rx="8" fill="#333"/>
  <rect x="168" y="224" width="176" height="64" rx="8" fill="#333"/>
</svg>
